<svg width="62" height="61" viewBox="0 0 62 61" fill="none" xmlns="http://www.w3.org/2000/svg">
<path d="M30.6567 61C47.588 61 61.3134 47.3447 61.3134 30.5C61.3134 13.6553 47.588 0 30.6567 0C13.7255 0 0 13.6553 0 30.5C0 47.3447 13.7255 61 30.6567 61Z" fill="#30A73C"/>
<path d="M37.3319 28.4004L30.5319 36.2004L20.8319 47.2004C19.9319 47.9004 18.8319 48.5004 17.5319 47.2004L15.3319 44.9004C13.8319 43.3004 14.7319 42.4004 15.5319 41.7004L26.7319 31.7004L34.0319 25.1004V24.9004C31.4319 20.8004 35.1319 17.5004 35.1319 17.5004L42.0319 12.2004C43.7319 11.4004 44.5319 13.2004 43.7319 14.0004L38.2319 20.4004C38.1319 20.5004 38.1319 20.7004 38.2319 20.8004C38.2319 20.9004 38.3319 20.9004 38.4319 20.9004C38.5319 20.9004 38.5319 20.9004 38.6319 20.8004L45.1319 15.4004H45.2319C45.7319 14.8004 47.6319 15.4004 46.8319 17.2004L41.4319 23.8004C41.3319 23.9004 41.3319 24.1004 41.4319 24.1004C41.4319 24.2004 41.5319 24.2004 41.6319 24.2004C41.7319 24.2004 41.7319 24.2004 41.8319 24.1004L48.2319 18.4004C48.5319 18.3004 48.7319 18.2004 49.0319 18.2004C50.2319 18.2004 50.4319 19.5004 50.0319 20.2004V20.3004L44.7319 27.2004L44.3319 27.6004C42.5319 29.2004 40.3319 30.2004 37.3319 28.4004Z" fill="red"/>
<path d="M29.1319 32.8004C27.7319 32.6004 13.2319 33.4004 14.0319 17.3004C14.0319 16.9004 14.1319 16.6004 14.2319 16.2004C14.6319 15.0004 15.3319 14.6004 16.0319 14.6004C16.7319 14.6004 17.3319 14.9004 17.6319 15.1004C17.7319 15.2004 35.2319 31.7004 35.2319 31.7004L45.6319 41.6004C47.2319 43.2004 46.2319 44.7004 45.7319 45.1004L43.5319 47.2004C42.8319 47.9004 41.5319 48.3004 40.5319 47.2004L29.1319 32.8004Z" fill="blue"/>
</svg>
